<svg xmlns="http://www.w3.org/2000/svg" width="16" height="16" class="svg-preview__svg" viewBox="0 0 16 16"><title>Your Favicon</title><g class="art"><path d="M0 0h1v1H0zM1 0h1v1H1z"/><path fill="#121212" d="M2 0h1v1H2zM3 0h1v1H3z"/><path fill="#131313" d="M4 0h1v1H4z"/><path fill="#020202" d="M5 0h1v1H5z"/><path fill="#0f0f0f" d="M6 0h1v1H6z"/><path fill="#141414" d="M7 0h1v1H7z"/><path fill="#121212" d="M8 0h1v1H8z"/><path fill="#111" d="M9 0h1v1H9z"/><path fill="#040404" d="M10 0h1v1h-1z"/><path fill="#0f0f0f" d="M11 0h1v1h-1z"/><path fill="#141414" d="M12 0h1v1h-1z"/><path fill="#121212" d="M13 0h1v1h-1z"/><path fill="#111" d="M14 0h1v1h-1z"/><path fill="#020202" d="M15 0h1v1h-1z"/><path fill="#101010" d="M0 1h1v1H0z"/><path fill="#fff" d="M1 1h1v1H1zM2 1h1v1H2zM3 1h1v1H3zM4 1h1v1H4z"/><path fill="#141415" d="M5 1h1v1H5z"/><path fill="#fff" d="M6 1h1v1H6zM7 1h1v1H7zM8 1h1v1H8zM9 1h1v1H9z"/><path fill="#303030" d="M10 1h1v1h-1z"/><path fill="#fff" d="M11 1h1v1h-1zM12 1h1v1h-1zM13 1h1v1h-1zM14 1h1v1h-1z"/><path fill="#202020" d="M15 1h1v1h-1z"/><path fill="#030303" d="M0 2h1v1H0z"/><path d="M1 2h1v1H1z"/><path fill="#fff" d="M2 2h1v1H2zM3 2h1v1H3z"/><path d="M4 2h1v1H4z"/><path fill="#070707" d="M5 2h1v1H5z"/><path fill="#fff" d="M6 2h1v1H6zM7 2h1v1H7z"/><path d="M8 2h1v1H8z"/><path fill="#fff" d="M9 2h1v1H9z"/><path d="M10 2h1v1h-1z"/><path fill="#fff" d="M11 2h1v1h-1zM12 2h1v1h-1z"/><path d="M13 2h1v1h-1z"/><path fill="#fff" d="M14 2h1v1h-1z"/><path fill="#232323" d="M15 2h1v1h-1z"/><path d="M0 3h1v1H0zM1 3h1v1H1z"/><path fill="#fff" d="M2 3h1v1H2zM3 3h1v1H3z"/><path d="M4 3h1v1H4z"/><path fill="#020202" d="M5 3h1v1H5z"/><path fill="#fff" d="M6 3h1v1H6zM7 3h1v1H7z"/><path fill="#19191a" d="M8 3h1v1H8z"/><path fill="#1d1d1d" d="M9 3h1v1H9z"/><path fill="#131313" d="M10 3h1v1h-1z"/><path fill="#fff" d="M11 3h1v1h-1zM12 3h1v1h-1z"/><path d="M13 3h1v1h-1z"/><path fill="#fff" d="M14 3h1v1h-1z"/><path fill="#222" d="M15 3h1v1h-1z"/><path d="M0 4h1v1H0zM1 4h1v1H1z"/><path fill="#fff" d="M2 4h1v1H2zM3 4h1v1H3z"/><path fill="#0d0d0d" d="M4 4h1v1H4z"/><path d="M5 4h1v1H5z"/><path fill="#fff" d="M6 4h1v1H6zM7 4h1v1H7z"/><path d="M8 4h1v1H8zM9 4h1v1H9zM10 4h1v1h-1z"/><path fill="#fff" d="M11 4h1v1h-1zM12 4h1v1h-1z"/><path d="M13 4h1v1h-1z"/><path fill="#fff" d="M14 4h1v1h-1z"/><path fill="#222" d="M15 4h1v1h-1z"/><path d="M0 5h1v1H0zM1 5h1v1H1z"/><path fill="#fff" d="M2 5h1v1H2zM3 5h1v1H3z"/><path fill="#161616" d="M4 5h1v1H4z"/><path fill="#040404" d="M5 5h1v1H5z"/><path fill="#fff" d="M6 5h1v1H6zM7 5h1v1H7z"/><path d="M8 5h1v1H8z"/><path fill="#fff" d="M9 5h1v1H9z"/><path d="M10 5h1v1h-1z"/><path fill="#fff" d="M11 5h1v1h-1zM12 5h1v1h-1z"/><path d="M13 5h1v1h-1z"/><path fill="#fff" d="M14 5h1v1h-1z"/><path fill="#222" d="M15 5h1v1h-1z"/><path fill="#0e0e0e" d="M0 6h1v1H0z"/><path fill="#fff" d="M1 6h1v1H1zM2 6h1v1H2zM3 6h1v1H3zM4 6h1v1H4z"/><path fill="#0d0d0e" d="M5 6h1v1H5z"/><path fill="#fff" d="M6 6h1v1H6zM7 6h1v1H7zM8 6h1v1H8zM9 6h1v1H9z"/><path d="M10 6h1v1h-1z"/><path fill="#fff" d="M11 6h1v1h-1zM12 6h1v1h-1zM13 6h1v1h-1zM14 6h1v1h-1z"/><path fill="#202020" d="M15 6h1v1h-1z"/><path d="M0 7h1v1H0zM1 7h1v1H1zM2 7h1v1H2zM3 7h1v1H3zM4 7h1v1H4z"/><path fill="#1a1a1b" d="M5 7h1v1H5z"/><path d="M6 7h1v1H6zM7 7h1v1H7zM8 7h1v1H8zM9 7h1v1H9zM10 7h1v1h-1zM11 7h1v1h-1zM12 7h1v1h-1zM13 7h1v1h-1zM14 7h1v1h-1zM15 7h1v1h-1z"/><path fill="#111" d="M0 8h1v1H0z"/><path fill="#fff" d="M1 8h1v1H1zM2 8h1v1H2zM3 8h1v1H3zM4 8h1v1H4zM5 8h1v1H5zM6 8h1v1H6z"/><path fill="#0f0f0f" d="M7 8h1v1H7z"/><path fill="#020202" d="M8 8h1v1H8z"/><path fill="#fff" d="M9 8h1v1H9zM10 8h1v1h-1zM11 8h1v1h-1zM12 8h1v1h-1zM13 8h1v1h-1zM14 8h1v1h-1z"/><path fill="#202020" d="M15 8h1v1h-1z"/><path fill="#151515" d="M0 9h1v1H0z"/><path fill="#fff" d="M1 9h1v1H1z"/><path d="M2 9h1v1H2z"/><path fill="#fff" d="M3 9h1v1H3z"/><path d="M4 9h1v1H4z"/><path fill="#1b1b1b" d="M5 9h1v1H5z"/><path fill="#1d1d1e" d="M6 9h1v1H6z"/><path fill="#0a0a0a" d="M7 9h1v1H7z"/><path d="M8 9h1v1H8zM9 9h1v1H9zM10 9h1v1h-1zM11 9h1v1h-1z"/><path fill="#fff" d="M12 9h1v1h-1z"/><path d="M13 9h1v1h-1z"/><path fill="#fff" d="M14 9h1v1h-1z"/><path d="M15 9h1v1h-1z"/><path fill="#040404" d="M0 10h1v1H0z"/><path fill="#252526" d="M1 10h1v1H1z"/><path fill="#121212" d="M2 10h1v1H2z"/><path fill="#fff" d="M3 10h1v1H3z"/><path d="M4 10h1v1H4z"/><path fill="#fff" d="M5 10h1v1H5zM6 10h1v1H6zM7 10h1v1H7z"/><path fill="#242424" d="M8 10h1v1H8z"/><path fill="#fff" d="M9 10h1v1H9zM10 10h1v1h-1z"/><path d="M11 10h1v1h-1z"/><path fill="#fff" d="M12 10h1v1h-1z"/><path d="M13 10h1v1h-1z"/><path fill="#202020" d="M14 10h1v1h-1z"/><path fill="#070707" d="M15 10h1v1h-1z"/><path d="M0 11h1v1H0zM1 11h1v1H1z"/><path fill="#0c0c0c" d="M2 11h1v1H2z"/><path fill="#fff" d="M3 11h1v1H3z"/><path d="M4 11h1v1H4z"/><path fill="#fff" d="M5 11h1v1H5z"/><path d="M6 11h1v1H6zM7 11h1v1H7z"/><path fill="#fff" d="M8 11h1v1H8z"/><path d="M9 11h1v1H9z"/><path fill="#fff" d="M10 11h1v1h-1z"/><path d="M11 11h1v1h-1z"/><path fill="#fff" d="M12 11h1v1h-1z"/><path fill="#171717" d="M13 11h1v1h-1z"/><path d="M14 11h1v1h-1zM15 11h1v1h-1zM0 12h1v1H0zM1 12h1v1H1z"/><path fill="#0e0e0e" d="M2 12h1v1H2z"/><path fill="#fff" d="M3 12h1v1H3z"/><path d="M4 12h1v1H4z"/><path fill="#fff" d="M5 12h1v1H5zM6 12h1v1H6z"/><path d="M7 12h1v1H7z"/><path fill="#fff" d="M8 12h1v1H8z"/><path d="M9 12h1v1H9zM10 12h1v1h-1zM11 12h1v1h-1z"/><path fill="#fff" d="M12 12h1v1h-1z"/><path fill="#171717" d="M13 12h1v1h-1z"/><path d="M14 12h1v1h-1zM15 12h1v1h-1zM0 13h1v1H0zM1 13h1v1H1z"/><path fill="#0e0e0e" d="M2 13h1v1H2z"/><path fill="#fff" d="M3 13h1v1H3z"/><path d="M4 13h1v1H4z"/><path fill="#fff" d="M5 13h1v1H5z"/><path d="M6 13h1v1H6zM7 13h1v1H7z"/><path fill="#fff" d="M8 13h1v1H8z"/><path d="M9 13h1v1H9z"/><path fill="#fff" d="M10 13h1v1h-1z"/><path d="M11 13h1v1h-1z"/><path fill="#fff" d="M12 13h1v1h-1z"/><path fill="#171717" d="M13 13h1v1h-1z"/><path d="M14 13h1v1h-1zM15 13h1v1h-1zM0 14h1v1H0zM1 14h1v1H1z"/><path fill="#0d0d0d" d="M2 14h1v1H2z"/><path fill="#fff" d="M3 14h1v1H3z"/><path d="M4 14h1v1H4z"/><path fill="#fff" d="M5 14h1v1H5zM6 14h1v1H6zM7 14h1v1H7z"/><path d="M8 14h1v1H8z"/><path fill="#fff" d="M9 14h1v1H9zM10 14h1v1h-1z"/><path d="M11 14h1v1h-1z"/><path fill="#fff" d="M12 14h1v1h-1z"/><path fill="#161616" d="M13 14h1v1h-1z"/><path d="M14 14h1v1h-1zM15 14h1v1h-1zM0 15h1v1H0zM1 15h1v1H1zM2 15h1v1H2zM3 15h1v1H3zM4 15h1v1H4zM5 15h1v1H5zM6 15h1v1H6zM7 15h1v1H7zM8 15h1v1H8zM9 15h1v1H9zM10 15h1v1h-1zM11 15h1v1h-1zM12 15h1v1h-1z"/><path fill="#030303" d="M13 15h1v1h-1z"/><path d="M14 15h1v1h-1zM15 15h1v1h-1z"/></g></svg>