<?xml version="1.0" encoding="utf-8"?>
<!-- Generator: Adobe Illustrator 20.0.0, SVG Export Plug-In . SVG Version: 6.00 Build 0)  -->
<svg version="1.1" xmlns="http://www.w3.org/2000/svg" xmlns:xlink="http://www.w3.org/1999/xlink" x="0px" y="0px"
	 viewBox="0 0 2028.5 927.6" width="2028.5" height="927.6" style="enable-background:new 0 0 2028.5 927.6;" xml:space="preserve">
<style type="text/css">
	.st0{fill:#E94A1B;}
	.st1{fill:#FFFFFF;stroke:#D32A2E;stroke-width:4;stroke-miterlimit:10;}
	.st2{display:none;opacity:0.2;fill:#FF0000;enable-background:new    ;}
	.st3{opacity:0;}
	.st4{fill:none;stroke:#232323;stroke-width:2;stroke-linecap:round;stroke-linejoin:round;}
	.st5{fill:#232323;}
	.st6{opacity:0.7;fill:#1798BA;enable-background:new    ;}
	.st7{opacity:0.28;fill:#1798BA;enable-background:new    ;}
	.st8{fill:#D32A2E;}
	.st9{fill:none;stroke:#F46240;stroke-width:2;stroke-miterlimit:10;}
	.st10{fill:none;stroke:#E94A1B;stroke-width:3;stroke-miterlimit:10;}
	.st11{fill:#FFFFFF;stroke:#232323;stroke-width:2;stroke-linecap:round;stroke-linejoin:round;}
	.st12{fill:#ECECEC;stroke:#0E7EA5;stroke-width:2;stroke-linecap:round;stroke-linejoin:round;}
	.st13{fill:#ECECEC;stroke:#232323;stroke-width:2;stroke-linecap:round;stroke-linejoin:round;}
	.st14{fill:none;stroke:#E94A1B;stroke-width:2;stroke-miterlimit:10;}
	.st15{fill:#074864;}
	.st16{fill:none;stroke:#D32A2E;stroke-width:2;stroke-miterlimit:10;}
	.st17{fill:#ECECEC;stroke:#0A5F84;stroke-width:2;stroke-linecap:round;stroke-linejoin:round;}
	.st18{fill:#FFFFFF;stroke:#E94A1B;stroke-width:2;stroke-miterlimit:10;}
	.st19{fill:#232323;stroke:#232323;stroke-width:2;stroke-linecap:round;stroke-linejoin:round;}
</style>
<g id="Layer_2">
	<rect class="st0" width="2028.5" height="927.6"/>
</g>
<g id="Layer_3">
	<circle class="st1" cx="1727.2" cy="574.2" r="717"/>
</g>
<g id="Layer_1">
	<title  id="title">10k Apart Making Machine</title>
	<g>
		<circle class="st2" cx="735" cy="165" r="10"/>
		<circle class="st2" cx="735" cy="165" r="10"/>
		<circle class="st2" cx="735" cy="165" r="10"/>
	</g>
	<g id="paper1" transform="matrix(1,0,0,1,0,-30)" class="st3">
		<path class="st4" d="M1594.1,292.9l100.1-63.5l41,19.6L1597,338.2L1594.1,292.9L1594.1,292.9z"/>
		<path d="M1633.5,276.6c-0.7-5.4,0.5-3.4,4.4-5.4c3.9-2,8.2-4.9,12.2-7.4l-0.7-0.9c1.5-1.3,3.9-0.4,5.5-0.6l-13,7.8
			C1638.6,272,1636.4,274.6,1633.5,276.6L1633.5,276.6z M1657.2,271.2c-4.5,4.3-9.7,7.7-15.3,10.1c-4.5,2-11.8,2.7-6.1-3.7
			c3.8-4.2,9.6-7.5,14.6-9.7c5-2.2,13.2-3.3,6.7,3.3H1657.2z M1647.3,276.3c1.3-0.8,11.8-6.5,10.3-8.9c-1.4-2.4-10.9,4.2-12.2,4.9
			c-1.2,0.7-11.6,6.7-10.4,8.8C1636.3,283.1,1645.8,277.2,1647.3,276.3L1647.3,276.3z M1637.6,307.3c-0.7-5.4-1.4-6.3,2.6-10.3
			s12.4-10.5,14.9-16.2l-10.7,6.5c-1.4,0.7-2.7,1.5-3.9,2.5c-1.7,1.5-2,4.5-4.5,5.2c-0.3-2.5-2.2-7.1,0.9-8
			c1.3,2.9,21.1-10.6,23.5-12.1c2.5-1.4,6.6-3.2,9-5.5c2.4-2.4-0.1-3.1,2.7-3.3s4.4,3.1,5.4,3.8c-1.7,1.8-3.5,0.5-5.6,1
			c-2.1,0.5-3.6,2-4.9,2.8l-10.6,6.4c2.9,0.1,24.1-4.3,20.9-7.6c2.6-3,6.9,2,9.3,3.7c-2.2,2.4-4.4,0.4-7.3,0.6
			c-5.6,0.3-17.4,2.6-21.4,6.3c-4,3.8-9,9.7-13.2,14.5C1642.1,300.3,1640.9,306.2,1637.6,307.3L1637.6,307.3z"/>
	</g>
	<path class="st5" d="M1486.6,383.3l-10.6-5.5l0.8-1.1c0,0,7.8-3.4-2.4-9.8l-242.3-155.3L1219,235l-12.9-7.5l-4.9,8.5l-0.7,1.2
		l-0.5,1l-1.9,3.5l-5.1-2.7c-1.7-0.9-3.7-0.2-4.6,1.4c-0.9,1.7-0.2,3.7,1.4,4.6l0,0l4.8,2.6l-4.8,8.3l-4.5-2.4
		c-1.7-0.9-3.7-0.2-4.6,1.4s-0.2,3.7,1.4,4.6l4.2,2.2l-8.2,14.1l13.7,7.9l-14,25.4l261.3,119.6c0,0,5.8,4.9,9.2-1.2l1.4-2.6
		l10.6,5.5c4.5,2.3,10,0.6,12.4-3.9c2.3-4.5,0.6-10-3.9-12.4l-10.4-5.4l8.2-15.4l11.4,5.9c4.5,2.3,10,0.6,12.4-3.9
		C1492.7,391.1,1491,385.7,1486.6,383.3L1486.6,383.3z M1300.3,315.4c-7.1,7.6-10.8,12.8-28.6,7.4c-17.8-5.4-45.2-22-45.2-22
		s-18.2-10.7-3.5-33.3c0,0,10.1-21.7,40-2c29.8,19.6,33.3,25.2,33.3,25.2S1307.4,307.8,1300.3,315.4L1300.3,315.4z"/>
	<path class="st6" d="M1746.5,695.4l8-262.7c-64.8,45.5-84.1-59.5-84.1-59.5c-12.5,92.3-85.4,80.5-85.4,80.5
		c-29.2,64.6-79.4,50.7-79.4,50.7l-0.5,215.6c-79.5,30.1-92.6,136.4-92.6,136.4h42.2c26.4-99,102.4-106.3,118.9-106.7h2l55.8,12.5
		l47.6-12.6h4c93-3.7,126.2,104.3,126.2,104.3l42.5-0.3C1845.5,748.3,1746.5,695.4,1746.5,695.4L1746.5,695.4z M1631.6,726.3
		c-48.4,0.3-88-44.3-88.3-99.8s38.5-100.7,87-101c48.4-0.3,88,44.3,88.3,99.8C1718.8,680.8,1680,726,1631.6,726.3L1631.6,726.3z"/>
	<path class="st5" d="M1454.3,850.2c0,0,35.5-103.1,121.7-100.9c0,0,40.6,2.7,54.5,12.8c0,0,72.5-37.6,130.5,17.3
		c0,0,22.8,22.5,43.6,60.6c0,0-74.3-121.4-172.4-63.2C1632.2,776.9,1524.7,724.2,1454.3,850.2z"/>
	<g id="plate2">
		<path class="st5" d="M1628,314.4l307.7-0.9V335l-323.4-10.2L1628,314.4z"/>
		<path class="st4" d="M1696.5,272.6l201.8,0.1l39,38.4l-309.3,3.4L1696.5,272.6z"/>
	</g>
	<path class="st7" d="M1577.7,342.4h-81.5l-13.4-17.4h29.8c4.8,0,8.8-3.7,8.8-7.9v-2.4c0-4.2-3.9-7.3-8.8-7.3h-27.5
		c0.1-0.7,0.2-1.4,0.2-2h-3.1c1.7,0,1.5-2.1,1.5-3.8v-42.3c0-1.6,0.1-1.8-1.5-1.8h-50.9c-14.2-12.5-22.4-30.4-22.5-49.4v-2.1
		c5.4,0.1,9.9-4.3,9.9-9.7c0.1-5.4-4.3-9.9-9.7-9.9c-5.4-0.1-9.9,4.3-9.9,9.7c0,0,0,0.1,0,0.1v0.7c-4.1,1.2-8,2.7-8.8,3.4
		s-7.9,0.5-16,0.5v-7.8c0-0.8-0.7-1.5-1.5-1.5s-1.5,0.7-1.5,1.5v7.7c-13.3-0.1-27.6-0.5-33.7-0.6v57.3h-3.1v-14.3h-17.4v-58.5
		c0-4.8-3.1-7.9-7.9-7.9h-14.7c-4.8,0-9.9,3-9.9,7.9v81.4l-17.4,13.4v-29.8c0-4.8-2.9-8.8-7.1-8.8h-2.8c-4.2,0-7.7,3.9-7.7,8.8v42.8
		c0,0.2,0.4,0.4,0.4,0.6l-41.9,32.4c-3.8,2.5-6.1,6.8-6,11.3c0.1,7.6,6.3,13.7,13.9,13.7c0,0,0,0,0,0c1.7,0,3.5-0.3,5.1-0.9
		l71.8-21.8l26.1,66.7c1.8,3,5.1,4.9,8.7,4.9c5.1,0,9.3-3.2,10.1-8.2l-3.2-69.3h-0.1v-16.4h39.2v67.9l-6.1,2.1c-3,1.8-4.9,5-4.9,8.5
		c0,5.1,3,9.3,8,10l69.1-3.3v1.5h16.3v37.7h-71.4c-1.6,22,12.5,22,17.9,21.4s8.1-3.2,20.9,1.5c12.9,4.7,13.1,19.7,13.1,19.7
		s-0.4,49.7-0.3,52.5c-0.5,15.1,19.7,16.2,19.7,16.2v-3.1c0,1.7,2.6,3.2,4.3,3.2h42.4c1.6,0,1.3-1.5,1.3-3.2v-50.9
		c12.6-14.2,30.6-22.4,49.6-22.5h2.2c0.6,5.4,5.4,9.3,10.8,8.8c4.6-0.5,8.3-4.1,8.8-8.8c0-5.4-4.3-9.7-9.7-9.7h-0.7
		c-1.2-4.1-2.7-7.2-3.4-8c-0.7-0.8-0.5-7.1-0.5-15.2h7.9c0.8,0,1.5-0.7,1.5-1.5s-0.7-1.5-1.5-1.5h-7.7c0.1-13.3,0.5-27.6,0.6-33.7
		h-57.8v-3.1h14.3V375h59.1c4.8,0,7.4-4.7,7.4-9.5v-14.8C1585,345.9,1582.5,342.4,1577.7,342.4L1577.7,342.4z"/>
	<path class="st8" d="M1512.1,695.6c-27.6-4.6-53.5-126.9-57.2-148.6c-6.3-37.8,2.4-75.5-0.7-111.2c-14.3-10.8-22.4,97.2-20.1,109.4
		c0,0,45.5,144.9,49.2,145.4c10.4,10.4,16.6,9,32,11.6c0-5.3,4.2-5.6-3.1-6.8V695.6z M1485,691.1
		C1487,690.9,1486.2,691.3,1485,691.1C1483.9,690.9,1485.2,691.1,1485,691.1z"/>
	<path id="gear" class="st9" d="M1533.7,440.5h3.3l3.6,10l5-0.4l1.4-10.4l3.5-0.6c1-0.3,2-0.5,3.1-0.7l5.4,8.8l4.8-1.5l-0.8-10.2
		c0.9-0.5,1.9-0.9,2.9-1.2l1.3-0.6l1.9-0.9l7.1,7.5l4.5-2.6l-3-10c1-0.7,2-1.4,3-2.1l2.4-1.8l8.7,6.1l3.8-3.5l-5.2-9.3
		c1.6-1.6,3.1-3.2,4.5-4.9l9.8,4.1l3-4.1l-6.7-8c1.3-1.8,2.4-3.7,3.5-5.7l10.1,1.8l2-4.6l-8.2-6.3c0.7-2,1.5-4.3,2-6.4l10.4-0.2l1-5
		l-9.5-4.5l0.3-3c0.1-1.2,0.2-2.5,0.2-3.7l10.3-2.5v-5.1l-10.3-2.5c0-1.2-0.1-2.6-0.2-3.7l-0.3-3.1l9.5-4.4l-1-5.1l-10.4-0.2
		c-0.6-2.1-1.4-4.4-2-6.4l8.2-6.2l-1.9-4.7l-10.2,1.9c-1-2-2.2-4-3.5-5.8l6.7-8l-3-4.1l-9.6,4l-4.5-4.8l5-9.3l-3.8-3.5l-8.6,6.1
		l-2.5-1.8l-3-2.1l3.1-10l-4.5-2.6l-7.2,7.5l-3.4-1.6l-2.9-1.1l0.9-10.2l-4.9-1.6l-5.4,8.9c-2-0.5-4.3-0.9-6.5-1.2l-1.4-10.4l-5-0.6
		l-3.5,10h-6.6l-3.5-10l-5.2,0.6l-1.2,10.4l-6.6,1.2l-5.3-8.9l-4.9,1.6l0.9,10.2l-2.9,1.1l-3.5,1.6l-7.1-7.6l-4.5,2.7l3,10l-1.7,1.2
		l-1.2,0.9l-2.2,1.7l-8.6-6l-3.8,3.5l5,9.3c-0.8,0.7-1.5,1.5-2.1,2.4l-2.2,2.6l-9.8-4l-3,4l6.7,8c-1.1,1.9-2.5,3.9-3.5,5.8
		l-10.1-1.9l-2,4.7l8.2,6.2l-2,6.5l-10.3,0.2l-1.1,5.1l9.5,4.4l-0.3,3.1c-0.1,1.1-0.2,2.5-0.2,3.6l-10.3,2.5v5.2l10.3,2.5
		c0,1.1,0.1,2.5,0.2,3.7l0.3,3l-9.6,4.2l1.1,4.9l10.3,0.2c0.5,2.2,1.2,4.4,2,6.5l-8.2,6.2l2,4.7l10.1-1.9c1,2,2.2,3.9,3.5,5.8
		l-6.7,7.9l3,4.1l9.8-4c1.4,1.6,2.9,3.4,4.5,4.9l-5.2,9.3l3.8,3.4l8.7-6l2.2,1.8l3,2.1l-3,10l4.4,2.6l7.2-7.6l3.5,1.6l2.8,1.2
		l-0.8,10.2l4.8,1.5l5.4-8.8l6.5,1.2l1.4,10.4l5,0.4l3.5-10h3.5L1533.7,440.5z M1584.2,400.3c0,6.7-5.4,12.1-12.1,12.1
		s-12.1-5.4-12.1-12.1c0-6.7,5.4-12.1,12.1-12.1l0,0C1578.8,388.2,1584.2,393.6,1584.2,400.3z M1594,361.3
		c0,11.6-9.4,20.9-20.9,20.9c-11.6,0-20.9-9.4-20.9-20.9s9.4-20.9,20.9-20.9l0,0C1584.6,340.3,1594,349.7,1594,361.3z M1584.2,322.2
		c0,6.7-5.4,12.1-12.1,12.1s-12.1-5.4-12.1-12.1c0-6.7,5.4-12.1,12.1-12.1l0,0c6.6,0,12,5.3,12.1,12V322.2z M1480.8,322.2
		c0-6.7,5.4-12.1,12.1-12.1s12.1,5.4,12.1,12.1c0,6.7-5.4,12.1-12.1,12.1h0C1486.1,334.3,1480.8,328.9,1480.8,322.2c0,0,0-0.1,0-0.1
		V322.2z M1513,321.5c0-11.6,9.4-20.9,20.9-20.9c11.6,0,20.9,9.4,20.9,20.9c0,11.6-9.4,20.9-20.9,20.9l0,0
		C1522.4,342.4,1513,333.1,1513,321.5c0,0,0-0.1,0-0.1V321.5z M1473.3,360.4c0-11.6,9.4-20.9,20.9-20.9c11.6,0,20.9,9.4,20.9,20.9
		s-9.4,20.9-20.9,20.9C1482.7,381.4,1473.3,372,1473.3,360.4c0,0,0-0.1,0-0.1V360.4z M1480.8,400.4c0-6.7,5.4-12.1,12.1-12.1
		s12.1,5.4,12.1,12.1c0,6.7-5.4,12.1-12.1,12.1h0C1486.1,412.4,1480.8,407,1480.8,400.4c0,0,0-0.1,0-0.1V400.4z M1512.2,400.3
		c0-11.6,9.4-20.9,20.9-20.9c11.6,0,20.9,9.4,20.9,20.9s-9.4,20.9-20.9,20.9l0,0C1521.6,421.2,1512.2,411.9,1512.2,400.3
		c0,0,0-0.1,0-0.1V400.3z"/>
	<path id="wheel3" class="st10" d="M1778.1,632.7l5.3-5.5l12.3,8.2c2.6-3,5-5.9,7.4-9l-10.4-10.4c3.1-4.1,5.9-8.3,8.6-12.7l13.7,5.6
		c1.9-3.4,3.7-6.7,5.4-10.2l-12.3-8.2c2.2-4.6,4.2-9.3,5.9-14.1l14.5,2.9c1.2-3.7,2.4-7.4,3.4-11l-13.7-5.6c1.2-5,2.2-10,3-15h14.7
		c0.5-3.9,0.9-7.7,1.1-11.5l-14.5-2.9c0.2-5.1,0.3-10.1,0-15.3l14.5-2.9c-0.2-3.9-0.6-7.7-1.1-11.5h-14.9c-0.8-5.1-1.8-10.1-3.1-15
		l13.7-5.6c-1-3.7-2.1-7.5-3.4-11.1l-14.5,3c-1.7-4.8-3.7-9.6-5.9-14.2l12.3-8.2c-1.6-3.5-3.5-6.8-5.4-10.2l-13.5,5.9
		c-2.6-4.4-5.4-8.6-8.5-12.7l10.4-10.4c-2.4-3.1-4.8-6-7.4-9l-12.3,8.2l-5.3-5.5l-5.5-5.3l8.2-12.3c-3-2.6-5.9-5-8.9-7.4l-10.4,10.4
		c-4.2-3.1-8.4-5.9-12.7-8.6l5.6-13.7c-3.4-1.9-6.7-3.7-10.2-5.4l-8.2,12.3c-4.6-2.2-9.4-4.1-14.2-5.8l2.9-14.5
		c-3.7-1.2-7.4-2.4-11-3.3l-5.5,13.8c-5-1.3-10-2.2-15-3v-14.8c-3.8-0.5-7.7-0.8-11.4-1.1l-2.9,14.4c-5.1-0.2-10.2-0.2-15.3,0
		l-2.9-14.4c-3.9,0.2-7.7,0.6-11.5,1.1v14.7c-5,0.7-10,1.7-15,3l-5.6-13.6c-3.7,1-7.4,2-11,3.4l2.9,14.5c-4.8,1.7-9.5,3.7-14.1,5.9
		l-8.2-12.3c-3.5,1.7-6.8,3.5-10.2,5.4l5.6,13.6c-4.4,2.6-8.6,5.5-12.7,8.6l-10.5-10.5c-3.1,2.4-6,4.8-9,7.4l8.2,12.3l-5.5,5.2
		c-1.8,1.8-3.6,3.7-5.2,5.6l-12.3-8.2c-2.6,2.9-5,5.9-7.4,8.9l10.4,10.4c-3.1,4.1-5.9,8.4-8.6,12.7l-13.6-5.6
		c-1.9,3.4-3.8,6.7-5.4,10.2l12.3,8.2c-2.2,4.6-4.2,9.3-5.9,14.1l-14.5-2.9c-1.2,3.7-2.4,7.4-3.4,11l13.7,5.6c-1.2,5-2.2,10-3,15
		h-14.6c-0.5,3.8-0.9,7.7-1.1,11.5l14.5,2.9c-0.3,5.1-0.3,10.2,0,15.3l-14.5,2.9c0.2,3.9,0.6,7.7,1.1,11.5h14.7
		c0.7,5.1,1.7,10.1,3,15l-13.7,5.6c1,3.7,2.1,7.4,3.4,11l14.5-2.9c1.7,4.8,3.6,9.5,5.8,14.1l-12.3,8.2c1.7,3.5,3.5,6.8,5.4,10.1
		l13.6-5.6c2.7,4.3,5.5,8.6,8.6,12.7l-10.4,10.4c2.4,3.1,4.8,6,7.4,8.9l12.3-8.2l5.3,5.5l5.5,5.3l-8.3,12.3c3,2.6,5.9,5,9,7.4
		l10.4-10.4c4.1,3.1,8.4,5.9,12.7,8.6l-5.6,13.6c3.4,1.9,6.7,3.8,10.1,5.4l8.2-12.3c4.6,2.2,9.4,4.1,14.2,5.8l-2.9,14.5
		c3.7,1.2,7.4,2.4,11,3.4l5.6-13.7c5,1.2,10,2.2,15,3v14.7c3.8,0.5,7.7,0.8,11.5,1.1l2.9-14.5c5.1,0.3,10.2,0.3,15.3,0l2.9,14.5
		c3.9-0.2,7.7-0.6,11.5-1.1v-14.7c5-0.7,10-1.7,15-3l5.6,13.7c3.7-1,7.4-2.1,11-3.4l-2.9-14.5c4.8-1.7,9.6-3.7,14.2-5.9l8.2,12.4
		c3.4-1.7,6.8-3.5,10.2-5.4l-5.7-13.6c4.4-2.6,8.6-5.4,12.7-8.6l10.4,10.4c3.1-2.3,6-4.8,8.9-7.4l-8.2-12.3L1778.1,632.7z
		 M1769.8,432.6c31.1,33,43.6,79.3,33.4,123.4l-103.1-27.6c0.7-7.3-1.3-14.6-5.7-20.4L1769.8,432.6z M1764,426.8l-75.4,75.4
		c-6-4.5-13.4-6.5-20.8-5.6l-27.6-103.1C1684.4,383.1,1730.9,395.6,1764,426.8z M1575.1,429.6c15.9-15.9,35.5-27.6,57-34l27.6,103
		c-3.5,1.4-6.7,3.6-9.4,6.2c-2.7,2.7-4.9,5.9-6.3,9.4l-103-27.5C1547.4,465.1,1559.1,445.5,1575.1,429.6L1575.1,429.6z
		 M1572.8,619.2c-31.6-33.1-44.3-79.9-33.9-124.5l103.1,27.6c-0.9,7.7,1.4,15.5,6.2,21.6L1572.8,619.2z M1660.7,515.2
		c5.7-5.7,15-5.7,20.7,0c5.7,5.7,5.7,15,0,20.7c-5.7,5.7-15,5.7-20.7,0c0,0,0,0,0,0C1655,530.2,1655,521,1660.7,515.2z M1578.6,625
		l75.5-75.5c6.2,4.4,13.9,6.2,21.5,5l27.6,103C1658.9,668.3,1612.1,656.1,1578.6,625L1578.6,625z M1711.2,655.2L1683.6,552
		c3.1-1.5,5.9-3.4,8.3-5.8c2.8-2.8,5-6.1,6.4-9.8l103,27.6C1788.4,607.6,1754.6,641.8,1711.2,655.2L1711.2,655.2z"/>
	<path class="st0" d="M1245.6,216.6l27.6-15.5l2.7-1.5l-3-2.9c-0.3-0.1-0.5,0-0.7,0.2l-5.5,2.2l-18.2,7.4l-9.8,4L1245.6,216.6z"/>
	<path class="st11" d="M1582.4,295.2l122.8-77.9l50.3,24.1L1586,350.7L1582.4,295.2L1582.4,295.2z"/>
	<path class="st12" d="M1473.2,631.7c-3.4,2.9-3.8,8-0.9,11.4c0.4,0.4,0.8,0.8,1.3,1.2c1.9,1.5,4.5,2.1,6.8,1.4
		c2.9-1,5.7-2.2,8.5-3.6l8.9-4c0.4-0.2,1.8-0.5,1.8-0.9v-16.8l-13.5,5.5l-6.6,2.7c-2,0.9-4.4,1.5-6.1,3.1L1473.2,631.7z M1480.6,634
		c2.1,1,2.9,3.5,1.9,5.6s-3.5,2.9-5.6,1.9c-1.7-0.8-2.7-2.8-2.3-4.7c0.6-2.3,2.9-3.7,5.2-3.1C1480.2,633.8,1480.4,633.9,1480.6,634z
		"/>
	<path class="st13" d="M1520.6,668.2c5.1-2.2,7.4-8.1,5.2-13.2c-1.8-4.1-6.1-6.5-10.5-5.9c-2.7,0.4-5.1,1.7-7.5,2.9l-6.4,2.8
		l-24.3,10.4l-12.2,5.1c4,5,8.2,9.9,12.7,14.6c0.4,0.4,1.1,1.2,1.8,0.9l1.8-0.8l3.4-1.4l13.4-5.7L1520.6,668.2z M1515,665.9
		c-2.6-0.8-4.5-3-4.7-5.7c-0.3-3.5,2.4-6.6,5.9-6.9s6.6,2.4,6.9,5.9c0.3,3.5-2.4,6.6-5.9,6.9C1516.4,666.1,1515.7,666.1,1515,665.9z
		"/>
	<path class="st4" d="M1367.4,324.2l290,35.1l-1.3,15.2L1367.4,341C1367.4,341,1371.5,326.7,1367.4,324.2L1367.4,324.2z
		 M1612.4,299.5l-215.9-15l2.7-16.4l218.1-9.5L1612.4,299.5L1612.4,299.5z"/>
	<path id="wheel2" class="st14" d="M1701,234.4l-3.6,3.8l-8.4-5.6c-1.7,2-3.5,4-5,6.1l7.2,7.2c-2.1,2.8-4,5.7-5.8,8.7l-9.3-3.9
		c-1.3,2.2-2.6,4.6-3.7,6.9l8.4,5.6c-1.5,3.1-2.8,6.3-4,9.6l-9.9-1.9c-0.8,2.5-1.6,5-2.2,7.6l9.3,3.9c-0.9,3.4-1.5,6.8-2,10.2h-10.1
		c-0.4,2.7-0.6,5.2-0.8,7.9l9.9,1.9c-0.2,3.5-0.2,6.9,0,10.4l-9.9,1.9c0.2,2.7,0.4,5.3,0.7,7.9h10.1c0.5,3.4,1.2,6.9,2,10.2
		l-9.3,3.9c0.6,2.6,1.4,5.1,2.2,7.6l9.9-2c1.2,3.3,2.5,6.5,4,9.7l-8.4,5.6c1.1,2.4,2.4,4.7,3.7,6.9l9.3-3.9c1.8,2.9,3.7,5.8,5.8,8.7
		l-7.2,7.2c1.6,2,3.3,4.1,5,6.1l8.4-5.6l3.6,3.8l3.8,3.6l-5.6,8.4c2,1.7,4,3.5,6.1,5l7.2-7.2c2.8,2.1,5.7,4.1,8.7,5.8l-3.9,9.3
		c2.2,1.3,4.6,2.6,6.9,3.7l5.6-8.4c3.2,1.5,6.4,2.8,9.7,4l-1.9,9.9l7.6,2.2l3.9-9.3c3.4,0.9,6.8,1.5,10.2,2V420l7.9,0.7l1.9-9.9
		c3.5,0.2,6.9,0.2,10.4,0l1.9,9.9c2.7-0.2,5.2-0.4,7.9-0.8v-10.1c3.4-0.5,6.8-1.2,10.2-2l3.9,9.3l7.6-2.2l-1.9-9.9
		c3.3-1.1,6.4-2.6,9.6-4l5.6,8.4c2.4-1.1,4.7-2.4,6.9-3.7l-3.9-9.3c3-1.8,5.9-3.7,8.7-5.8l7.2,7.2c2-1.6,4.1-3.3,6.1-5l-5.6-8.4
		l3.8-3.6l3.6-3.8l8.5,5.6c1.7-1.9,3.5-4,5-6.1l-7.2-7.2c2-2.9,4.1-5.7,5.8-8.7l9.3,3.9c1.3-2.2,2.6-4.6,3.7-6.9l-8.4-5.6
		c1.5-3.2,2.8-6.4,4-9.7l9.9,1.9c0.8-2.6,1.6-5,2.2-7.6l-9.3-3.9c0.8-3.4,1.5-6.8,2-10.2h10.1c0.4-2.7,0.6-5.2,0.8-7.9l-9.9-1.9
		c0.2-3.5,0.2-7,0-10.4l9.9-1.9c-0.2-2.7-0.4-5.2-0.7-7.9h-10.1c-0.5-3.4-1.2-6.9-2-10.2l9.3-3.9c-0.7-2.6-1.4-5-2.2-7.6l-9.9,1.9
		c-1.2-3.3-2.5-6.5-4-9.7l8.4-5.6c-1.1-2.4-2.4-4.7-3.7-6.9l-9.3,3.9c-1.8-3-3.8-5.8-5.8-8.7l7.2-7.2c-1.6-2-3.3-4.1-5-6.1l-8.4,5.6
		l-3.6-3.8l-3.8-3.6l5.6-8.4c-2-1.7-4-3.5-6.1-5l-7.2,7.2c-2.9-2.1-5.7-4.1-8.7-5.8l3.9-9.3c-2.2-1.3-4.6-2.6-6.9-3.7l-5.6,8.4
		c-3.2-1.5-6.4-2.8-9.7-4l1.9-9.9l-7.6-2.2l-3.9,9.3c-3.4-0.9-6.8-1.5-10.3-2v-10.1l-7.9-0.7l-1.9,9.9c-3.5-0.2-7-0.2-10.4,0
		l-1.9-9.9l-7.9,0.8v10.1c-3.5,0.5-6.8,1.2-10.2,2l-3.9-9.3l-7.6,2.2l1.9,9.9c-3.3,1.2-6.5,2.5-9.7,4l-5.6-8.4l-6.9,3.7l3.9,9.3
		c-3,1.8-5.9,3.7-8.7,5.8l-7.2-7.2c-2,1.6-4.1,3.2-6.1,5l5.6,8.4L1701,234.4z M1706.7,371.2c-21.2-22.5-29.8-54.2-22.8-84.3
		l70.4,18.8c-0.5,5,0.9,10,3.9,14L1706.7,371.2z M1710.7,375.1l51.5-51.5c4.1,3.1,9.2,4.5,14.3,3.9l18.8,70.3
		c-30.2,7.1-62-1.5-84.6-22.8L1710.7,375.1z M1839.7,373.2c-10.8,10.9-24.2,18.9-38.9,23.3l-18.9-70.4c2.4-1,4.6-2.5,6.4-4.3
		c1.8-1.8,3.3-4,4.3-6.4l70.4,18.8c-4.4,14.7-12.4,28.1-23.3,38.9L1839.7,373.2z M1841.3,243.7c21.6,22.6,30.3,54.5,23.2,84.9
		l-70.4-18.9c0.6-5.3-0.9-10.6-4.2-14.7L1841.3,243.7z M1781.2,314.8c-3.9,3.9-10.2,4-14.2,0.1c-3.9-3.9-4-10.2-0.1-14.2
		c3.9-3.9,10.2-4,14.2-0.1c0,0,0,0,0.1,0.1c3.8,3.9,3.8,10.1,0,14V314.8z M1837.2,239.7l-51.6,51.6c-4.3-3-9.5-4.2-14.6-3.4
		l-18.8-70.3c30.3-7.5,62.3,0.8,85.1,22L1837.2,239.7z M1746.7,219l18.9,70.5c-2.1,1-4,2.3-5.6,4c-1.9,1.9-3.4,4.2-4.4,6.6
		l-70.4-18.8C1694,251.6,1717.1,228.2,1746.7,219z"/>
	<g id="hoverArea">
		<g id="wheel1" transform="matrix(1,0,0,1,0,0)">
			<path class="st15" d="M1937,426.4c-17.9-56.8-53.8-107.2-101.1-143.3c-24.8-18-51.2-33-80.2-43c-29.5-10.1-60.5-15.5-91.7-15.8
				c-159.8-1.6-290.7,126.6-292.4,286.4c-1.6,159.8,126.6,290.7,286.4,292.4c159.8,1.6,290.7-126.6,292.4-286.4
				C1950.8,486.1,1946.2,455.6,1937,426.4z M1936.1,569.1c-11.8,59.2-42.2,113-86.8,153.6c-23.3,21.3-49.9,37.4-78.5,50.5
				c-24.3,10.2-49.6,16.4-75.7,20.2c-29.9,2.9-59.9,2.7-89.4-3.5c-25.6-5.4-50.4-14.2-73.7-26.1c-55.1-27.7-100.3-76.1-126.2-131.8
				c-27.9-60.5-33.6-129-16.1-193.3c15.7-57.6,50-107.9,96.2-145.4c42.4-34.4,95.2-54.5,149.4-59.8s106.2,5.5,153.2,29.5
				c52.9,27.1,98.5,72.2,124.1,126.1c12.2,25.6,21.2,52.5,25.4,80.6c3.4,22.2,4.3,44.7,2.7,67
				C1939.7,547.7,1938.2,558.4,1936.1,569.1c-0.6,2.9,4.7-23.7,0-0.1V569.1z"/>
			<path class="st15" d="M1934,494.1c-2.6-25.2-7.2-49.9-16-73.7c-10.5-28.8-25.8-55.5-45.3-79.2c-38.6-46.7-91.5-79.5-150.5-93.1
				c-26.5-6.1-54.5-8.6-81.5-6.2c-16,1.2-31.9,3.8-47.4,7.8c-14.8,3.9-29.2,8.8-43.2,14.8c-22.8,9.7-43.7,23.6-62.9,39.1
				c-21.6,17.6-40.3,38.6-55.3,62.1c-16,24.8-27.9,52-35.5,80.5c-8.4,32.4-10.7,66.1-6.8,99.4c7.3,62.2,36,121.3,81.2,164.8
				c42,40.3,96.6,66.9,154.3,74.2c61.7,7.7,124.1-5.5,177.4-37.4c51.5-31.1,92.4-79.3,113.9-135.5c8.3-21.4,13.8-43.7,16.6-66.5
				C1934.8,528.2,1934.7,511.3,1934,494.1z M1875.1,368.9c17.8,26.2,30.7,55.5,38,86.3c1.8,7.9,3.3,15.9,4.5,24
				c1,6.3,0.3,12.7-2,18.6c-5.2,13-17.4,20-30.3,23.5c-7.5,2.3-15.5,2.4-23.1,0.3c-7.2-2.3-14-5.5-20.4-9.5c-13.2-7.8-25.4-17-39-24
				s-27.5-11.3-42.6-12.4s-29.4,1.4-43.4,5.3c-3.5,1-6.8,2-10.2,3.3s-7.1,3.1-10.8,3.1c-6.3,0-12.7-5.2-15.6-10.6
				c-3-5.4-2-11.8-0.7-17.8c1.6-7.7,3.9-15.1,6.9-22.4c5.2-12.6,12.6-24.1,23.2-32.8c10.6-8.7,23-14.9,35.2-21.1
				c12.2-6.1,24.1-12.4,34.3-21.3c10.2-8.9,18.1-22.1,21.3-36.5c1.4-6.4,2.5-12.9,9.4-15.5s12.9,1.9,18.3,6.3
				c10.2,8.7,19.8,18.3,28.5,28.5C1863,352.2,1869.3,360.4,1875.1,368.9L1875.1,368.9z M1702.4,541.7c14,11,25.3,24.9,33.1,40.9
				c-7.3-10.9-15.6-21-24.8-30.2c-4.9-4.8-11-8.9-15.3-14.4s-4.9-13-3.2-19.8c-0.6,4.1-0.3,8.3,1,12.3c1.7,4.9,5.3,8.3,9.3,11.3
				L1702.4,541.7z M1762.2,737.5c2.8,6.9-0.5,14.8-7.4,17.6c0,0,0,0,0,0c-7.3,2.8-14.6,5.3-22.1,7.5c-15.3,4.4-30.9,7.4-46.7,9
				c-32,3.2-64.4,0.4-95.4-8.2c-7.5-2-14.8-4.5-22-7.2c-7.2-2.7-13-5-18.2-10c-10.7-10.3-12-24.7-9.1-38.5
				c1.4-6.8,4.1-13.8,8.5-19.3c4.4-5.5,10.7-9.9,16.9-13.8c12-7.5,25-13,37.3-19.9c12.3-6.9,21.9-13.8,30.7-23.4
				c8.8-9.6,17.1-24.3,22.1-38.2c2.7-7.5,4.8-15.2,6.3-23c1.3-6.7,1.4-14,8.2-17.7c6.7-3.7,13.2-4.3,19.5-1.1
				c6.3,3.2,11,8.8,15.6,13.5c10.6,11.1,19.7,24.4,23.7,39.4c4,15,3.1,31.1,2.2,46.7s-1.8,32.4,2.6,48c2,6.9,5.2,13.5,9.6,19.2
				c2.2,3,4.6,5.8,7.2,8.4c2.7,2.7,6,4.9,8.5,7.8C1760.9,735.2,1761.6,736.3,1762.2,737.5L1762.2,737.5z M1549.6,670
				c10.5-9,23.1-15.2,35.3-21.7c12.2-6.4,25.3-14,36.3-23.8c17.1-15.6,24.5-38.6,29.9-60.5c-2.4,13.3-5.3,26.6-11.5,38.7
				c-1.6,3.4-3.4,6.7-5.4,9.8c-4.4,6.4-9.6,12.3-15.4,17.6c-11.4,10.1-25.8,16.7-39.3,23.4c-13.6,6.7-24.8,12.8-35.6,22.1l-0.3,0.3
				C1545.5,673.8,1547.5,671.8,1549.6,670L1549.6,670z M1595.1,536.2c-13.4,3.5-28.4,5.5-42.1,2.9c-13.7-2.7-28.7-9.6-41.7-17.8
				c-13-8.2-26.2-18-40.9-24.1c-6.7-2.7-13.6-4.7-20.9-4.7c-7,0.1-14,1.2-20.7,3.2l-3.2,0.9c6.1-2.2,12.2-4.3,18.7-5
				c7.4-0.8,14.9,0,22.1,2.2c15.4,4.4,29,14.4,42.4,22.9c13.4,8.5,25.2,16,39.4,19.1c14.3,3.1,29.1,3.2,43.4,0.2
				c7.1-1.5,14-3.4,21.1-5.4C1606.9,532.6,1601.1,534.8,1595.1,536.2L1595.1,536.2z M1626.5,484.1c-2.8-1-5.2-3.4-7.5-5.3l-6.7-5.8
				c-4.2-4-8.1-8.3-11.6-13c-4.3-5.6-8.8-11.4-11.8-17.8c-5-10.5-8-21.9-8.6-33.5c-0.3-10.6,0-21.2,1.1-31.8
				c-0.2,22.5-1.1,47.3,11.3,67.2c6.4,10.3,13.4,20.2,22.4,28.6c4.7,4.4,9.8,10.6,16.3,12.1c5.6,1.7,11.7,1.7,17.3-0.1
				C1641.4,487.6,1633.6,487.8,1626.5,484.1C1625.7,483.8,1628,484.8,1626.5,484.1L1626.5,484.1z M1639.9,495.8
				c10-11.5,27.4-12.8,38.9-2.8c11.5,10,12.8,27.4,2.8,38.9c-6.2,7.1-15.5,10.6-24.8,9.2c-15-2.1-25.5-16.9-23.2-31.8
				C1634.3,504.4,1636.5,499.7,1639.9,495.8z M1668.2,447.3c3.7-15.3,10.5-31.7,21.4-43.5c13.4-15.2,30.8-24.4,48.9-32.7
				c-18.9,10.7-38.3,21.7-51.2,39.8c-12.9,18.1-18.1,36.2-22.5,56.1c0.8-6.6,1.9-13.2,3.5-19.6L1668.2,447.3z M1785.5,326.7
				c2.6-10,3.6-20.3,1.3-30.5c-2.9-12.8-12.5-22.7-23.7-28.7c16.4,5.9,27.4,21.4,27.7,38.8c0.1,15.2-5,30.5-15.7,41.4
				c4.9-6.2,8.5-13.3,10.5-20.9c0.1-0.6-0.1,0.1,0-0.1H1785.5z M1560.7,277.7c2-2.9,4.8-4.4,8-5.5c3.2-1.1,8.1-3,12.3-4.3
				c7.6-2.5,15.3-4.5,23.1-6.2c14.7-3.3,29.8-5.3,44.9-6c30.2-1.5,60.5,2.3,89.4,11.2c14.3,4.4,30.7,8.7,38.7,22.5
				c8.1,13.8,5.5,29.1-0.2,41.9c-5.7,12.8-18.9,21.1-31.4,27.7c-12.5,6.6-22.6,11.4-33.4,17.9c-19.1,11.2-34.2,28.1-43.1,48.4
				c-3.2,7.2-5.8,14.6-7.9,22.2c-0.9,3.4-1.7,6.8-2.4,10.3c-0.6,3.5-0.9,7.7-2.1,11.1c-2.2,5.9-8.7,9.1-14.7,10
				c-8,1.1-13.7-3.2-19.3-8.3c-11.2-10.3-21.7-22.7-27.7-36.8c-6-14.1-6.6-30.7-6-46.3c0.6-15.6,1.8-28.9,0.6-43.4
				c-1.2-14.5-6.6-28.3-16.7-39.3c-1.9-2.1-4-4.2-6.1-6.1c-2-1.8-4.4-3.4-5.9-5.7c-3-4.6-3-10.5,0.1-15L1560.7,277.7z M1553.3,297.2
				c-2.7-4.6-3.5-10-2.5-15.2c-0.3,5.5,1.3,10.8,4.6,15.2c4.7,4.9,10.1,8.8,14.4,14.1c4.2,5,7.4,10.7,9.3,17
				c1.4,5.1,2.2,10.3,2.5,15.6c-1.9-8.4-4.1-16.5-8.6-23.9c-2.9-4.6-6.3-8.8-10.2-12.7C1559.6,303.9,1555.7,301.3,1553.3,297.2
				L1553.3,297.2z M1404.9,474.8c8.8-56.4,35.9-108.5,76.9-148.2c5.6-5.3,11.4-10.5,17.4-15.3s11.9-8.6,19.3-9.8
				c14.6-2.5,27.7,5.2,37.5,15.4c4.8,4.8,8.3,10.6,10.3,17.1c1.9,7.3,2.4,14.8,2.4,22.2c0,15.1-1.7,30.2-1.3,45.4
				c0.4,15.1,3.6,31.1,10.6,45.3s15.8,24.7,26.3,34.8c2.6,2.5,5.2,5,8,7.4c2.8,2.2,6,4.3,8,7.5c3.3,5.2,2.5,12.6-0.2,17.8
				c-2.7,5.2-8.7,8.7-14.8,10.7c-7.1,2.4-14.4,4.2-21.8,5.3c-14.7,2.2-29.6,1.6-43.5-4c-13.9-5.6-26.2-14.1-38.7-22.2
				c-12.6-8.1-26.1-16.4-40.9-19c-7.4-1.3-15-1.2-22.4,0.1c-3.6,0.7-7.2,1.5-10.7,2.7c-3.2,1-6.4,2.7-9.8,2.4
				c-7.7-0.7-13.6-7.4-12.4-15.3S1404.2,479.5,1404.9,474.8L1404.9,474.8z M1403.8,547.5c-1.7-13.4,4.3-26.6,15.6-33.9
				c11.8-7.6,27.4-11.3,41-7.2c13.6,4.2,27.7,14.4,40.7,22.7s27.3,16.2,42.7,20.1c15.4,3.9,29.7,3.4,44.5,1
				c7.7-1.3,15.3-3.2,22.7-5.6c3.6-1.1,7.1-2.7,10.6-3.8c3.6-1.1,7.3-0.5,10.7,1c5.6,2.6,10.1,8.9,11,14.9s-1.5,14.4-3.4,20.8
				c-4,13.9-10.2,27.9-20,38.7c-9.8,10.8-20.5,16.8-32.2,23c-13.7,7.2-27.6,13.7-40.3,22.8c-12,8.5-20.8,20.9-24.8,35.1
				c-1.8,6.2-1.6,14.1-7.1,18.7s-13.5,3.1-19-1.5c-46-38.6-78.5-92-90.1-151C1405.4,558.1,1404.6,552.9,1403.8,547.5
				C1402.2,535.6,1408.9,585.8,1403.8,547.5z M1508.2,726.8c-8.4,1-14.5-4-20.4-8.9c-7.2-6-14-12.4-20.5-19.1
				c-10.5-10.7-19.1-23-27.2-35.6c5.2,6.3,10,12.9,15.5,19c5.5,6.1,10.7,12.1,16.5,17.8s14.5,13.7,21.9,20.5
				c7.4,6.8,13.4,6.3,20.9,4.7c-2.1,0.8-4.3,1.3-6.5,1.6L1508.2,726.8z M1765.8,756.7c-4.5,5.3-11,6.9-17.4,9.3
				c-6.3,2.4-14.5,4.8-21.9,6.8c-15.5,4.2-31.3,6.9-47.3,8.1c-32.9,2.5-65.9-1.3-97.4-11c-6.8-2.1-13.5-4.7-20.1-7.4
				c-6.4-2.3-12.3-6-17.3-10.7c-9.1-8.9-12.9-21.1-12.4-33.4c0.1,13.6,5.2,26.3,16,34.8c5.9,4.7,12.8,7.1,19.8,9.7
				c7.1,2.7,15.5,5,23.3,7.3c31.4,8.8,65.1,10.8,97.3,7.4c16.5-1.7,33.1-4.4,48.8-9.3c7.2-2.2,14.8-4.2,21.7-7.3
				c6.8-3.1,10.2-8.8,11.5-15.1c-0.6,4-2.3,7.7-4.9,10.8H1765.8z M1770.8,725.2l2.9,2.4c-12.5-7.7-24.1-18-27.5-32.8
				s-2.1-28.2-0.4-42.3c0.2,13.1-0.7,26.6,2.4,39.3c3.1,12.8,11.6,24.6,22.8,33.4C1772.6,726.8,1770.5,725,1770.8,725.2
				L1770.8,725.2z M1893.5,627c-12.4,25.7-29,49.2-49.1,69.5c-4.9,5-9.9,9.7-15.2,14.2c-5.3,4.5-10.5,9.5-16.8,12.6
				c-6.5,3.2-13.8,4.3-20.9,3.2c-7.5-1.2-13.8-5-19.6-9.6s-10.9-10-14.3-16.6c-3.4-6.5-4.4-13.8-4.8-20.9
				c-0.9-15.3,1.1-30.8,1.2-46.1c0.1-15.3-1.8-32-8.1-46.7c-5.3-11.8-12.4-22.7-21.1-32.4c-5.1-5.8-10.7-11.2-16.7-16.1
				c-5.3-4.5-10.3-8.9-8.8-16.7c1.2-6.1,3.2-11.5,8.8-15c5.6-3.5,13.7-5.3,20.4-6.8c13.9-3.2,28.8-4.5,42.8-1.1
				c14,3.4,28.8,12.4,41.9,20.8c13.1,8.5,25.5,16.9,40.2,21.7c7.6,2.5,15.6,3.4,23.5,2.9c8-0.6,15.1-3.2,22.8-5.4
				c6.9-2,14.2,1.8,16.5,8.7c1,3.3,0.4,6.5-0.1,9.8s-1.4,8-2.4,12c-3.4,15.6-8.3,30.9-14.6,45.7C1897.5,618.8,1895.5,623,1893.5,627
				L1893.5,627z M1923.8,557.7c-1.9,13.5-4.2,26.9-8.8,39.8c-2.2,6.4-4.7,12.7-7.5,18.8c-2.4,4.8-4.7,9.5-7.2,14.2
				c1.9-5.3,3.9-10.5,5.9-15.7c2.9-7.2,5-14.6,7.6-21.9s4.4-14.2,6-21.5c1.6-7.3,2.7-11.4,4.3-17.2l-0.4,3.4
				C1923.5,559.8,1924.1,555.5,1923.8,557.7L1923.8,557.7z M1925.6,490.6c-1.8,14.9-11.2,27.7-24.8,33.9
				c-14.3,6.7-29.2,9.8-44.6,4.5c-26.3-9-46.2-30.8-72.7-39.5c-13.9-4.8-28.7-6.3-43.2-4.5c-7.5,0.9-14.5,2.4-21.8,4
				c-5.1,1.2-10.1,3.1-15.1,4.7l13.4-5c6.8-1.9,13.7-3.5,20.6-4.7c13.7-2.1,28.4-2.5,41.8,1.7c13.4,4.2,27.9,12.1,40.9,20.3
				c10.9,6.9,21.8,14.8,34,19.5c3.2,1.4,6.6,2.4,10,3.2c4.6,0.7,9.3,0.9,13.9,0.5c9-0.6,19-4.3,26.8-8.9
				c14.7-8.6,21.7-24.8,20.5-41.4c0.5,3.8,0.6,7.6,0.2,11.4C1925.2,494.3,1926.1,487,1925.6,490.6L1925.6,490.6z"/>
		</g>
		<path id="crank" class="st8" d="M1903.1,191.4c-0.4-1.1-1-3.1-2.1-3.7c-1.1-0.6-4,0.1-5.5,0.6c-3.2,1.3-6,3.2-8.5,5.6
			c-4,3.9-7.3,8.4-9.9,13.3c-2.2,3.7-3.8,7.7-5,11.9c-0.5,2.3-0.8,4.6-0.9,6.9c-0.4,3.2-1.3,6.4-2.7,9.4c-1.6,3.9-3.9,9.8-8.7,10.7
			c-0.8,0.1-1.9,0-2.7,0.5c-0.7,0.5-0.5,4.5,0.5,5.8l0.9,1c-0.5,0.4-0.8,1-1.1,1.5L1675,608.6c-6.6,4.6-42.2,68.1-48.6,80.5
			c-10.1,19.5-12.8,38.2-5.9,41.8c6.8,3.6,20.5-9.5,30.7-29c5.3-10.2,36.3-78.4,37.2-86L1872.6,263c0.3-0.7,0.6-1.5,0.6-2.2
			c1.8,0.1,3.8-0.3,4.9-1.9c0.4-0.5,0.5-1.2,0.2-1.7c-0.6-1.6-1.6-2.9-1.6-4.7c0.1-4.2,2.8-8.4,5-11.8c1.6-2.5,3.6-4.8,5.8-6.8
			c1.9-1.5,3.6-3.3,5.1-5.1c2.9-3.8,5.2-8,7.1-12.4c2.2-4.9,3.7-10.1,4.2-15.4C1904.3,197.7,1904,194.5,1903.1,191.4L1903.1,191.4z"
			/>
	</g>
	<path class="st13" d="M1661.1,479c-19.2,0-34.7,15.6-34.7,34.7c0,19.2,15.6,34.7,34.7,34.7s34.7-15.6,34.7-34.7
		C1695.8,494.5,1680.3,479,1661.1,479z M1661.1,532.5c-10.4,0.1-18.8-8.3-18.9-18.7c-0.1-10.4,8.3-18.8,18.7-18.9
		c10.4-0.1,18.8,8.3,18.9,18.7c0,0,0,0.1,0,0.1c0,10.3-8.3,18.7-18.6,18.8H1661.1z"/>
	<g id="plate1" transform="matrix(1,0,0,1,0,0)">
		<path class="st4" d="M1255.8,124.1c5.1,4,10.9,7.1,16.8,10.1s11.9,5.9,17.8,8.8c12.1,5.6,24.5,10.7,37,15.5
			c24,9.3,48.5,17.3,73.3,24.1c10.9,3,22,5.6,33.2,7.6c5.4,1.1,10.9,1.8,16.4,2.2c2.4,0.2,4.8,0.2,7.2-0.1c1.2-0.2,3.8-0.4,4.1-1.9
			c-5.6,1.1-11.9,0.3-17.5-0.4c-5.6-0.7-11.9-1.9-17.7-3.2c-12.6-2.8-25-6.1-37.4-9.8c-25-7.5-49.7-16.1-73.9-26.1
			c-11.9-4.9-23.7-10-35.2-15.8c-8.5-4.2-17.1-8.7-24.5-14.6c-1.7-1.3-3.2-2.8-4.5-4.4c-0.8,1.3,0,2.8,0.8,3.9
			c1.2,1.6,2.6,3,4.2,4.2V124.1z"/>
		<path class="st16" d="M1254,113.1c1.4,1.7,3,3.2,4.8,4.5c2.9,2.2,6,4.2,9.2,6c9.4,5.4,19,10.3,28.9,14.6
			c23.1,10.3,46.7,19.4,70.7,27.3c11.9,3.9,23.8,7.6,35.9,10.8c12.1,3.3,23.1,6,34.9,8.1c5.8,1.1,11.7,1.8,17.7,1.8
			c0.8,0,6.9-0.1,6.6-1.5s-3-3.9-4.4-5c-6.7-5.5-14.7-9.6-22.5-13.6c-10.3-5.3-21.1-10-31.8-14.5c-24.4-10.2-49.3-19.1-74.6-26.8
			c-11.5-3.5-23.1-6.7-34.7-9.4c-8.8-2.1-17.7-3.7-26.7-4.8c-3.3-0.4-6.7-0.6-10-0.4c-1.5,0-2.9,0.3-4.3,0.8c-1,0.5-0.3,1.2,0.3,2
			L1254,113.1z"/>
		<path class="st4" d="M1360.4,240.3c-4.5-8.5-26-26.6-20.2-37.3c0.6-1.1,7.3-3,8.5-4.4c3.8-4.3,5.1-16.9,7.6-22.7l-31.7-11.6
			c-4.7,10.3-3.8,31.2-14.3,36.7c-3.3-5.4-5.7-11.3-7.2-17.5c-1.4-6.1,0.7-15.3-2-20.9c-5.8-11.6-19-7.8-21.9,3.4
			c-7.8,30.1,21.9,60.2,42.7,76c2,3.2,9.3,10.7,9.7,14.8c0.4,4.1-5.5,7.1-5.5,8.9c5.1,3.1,31.5-1.1,36-4.2
			c9.6-6.6,3.7-11.3-1.4-21.2L1360.4,240.3z M1332.2,257.5C1332.3,257.6,1332.4,258.7,1332.2,257.5z"/>
	</g>
	<circle class="st17" cx="1347.3" cy="331" r="19.4"/>
	<circle class="st17" cx="1347.3" cy="331" r="9.5"/>
	<circle class="st12" cx="1814" cy="806" r="15.3"/>
	<circle class="st12" cx="1814" cy="806" r="7.5"/>
	<circle class="st18" cx="1370.5" cy="223.5" r="12.2"/>
	<circle class="st18" cx="1370.5" cy="223.5" r="5.9"/>
	<path class="st19" d="M1394,838.9h79.7v23.5H1394V838.9z M1785.9,838.9h79.7v23.5h-79.7V838.9z"/>
	<circle class="st12" cx="1449.8" cy="803.2" r="15.3"/>
	<circle class="st12" cx="1449.8" cy="803.2" r="7.5"/>
	<path class="st10" d="M1358.3,268.6c0,0,0.5,25.6,33.7,18.8l67.4,7.1l-0.8,8.2l-24.5,26l-15.5-1.8l-85-55.8L1358.3,268.6z"/>
	<path class="st14" d="M1278.9,203.1l4.5,5.4l42.8,46.3l-5.1,7.1l-70.8-44L1278.9,203.1L1278.9,203.1z"/>
	<script  type="text/javascript" xlink:href="https://cdnjs.cloudflare.com/ajax/libs/gsap/1.18.4/TweenMax.min.js"></script>
	<script  type="text/javascript" xlink:href="/j/hero.min.js"></script>
</g>
</svg>
